HIERARCHY
ROOT Hips
{
	OFFSET 0.053599 88.859886 3.107447
	CHANNELS 6 Xposition Yposition Zposition Zrotation Yrotation Xrotation 
	JOINT Spine
	{
		OFFSET -0.000000 8.814246 -2.080107
		CHANNELS 3 Zrotation Yrotation Xrotation
		JOINT Spine1
		{
			OFFSET 0.000000 8.844141 0.000000
			CHANNELS 3 Zrotation Yrotation Xrotation
			JOINT Spine2
			{
				OFFSET -0.000000 11.682268 0.000000
				CHANNELS 3 Zrotation Yrotation Xrotation
				JOINT Spine3
				{
					OFFSET 0.000000 11.746700 0.000000
					CHANNELS 3 Zrotation Yrotation Xrotation
					JOINT Neck
					{
						OFFSET -0.000000 17.658264 -0.000000
						CHANNELS 3 Zrotation Yrotation Xrotation
						JOINT Neck1
						{
							OFFSET -0.000000 5.101515 -0.000000
							CHANNELS 3 Zrotation Yrotation Xrotation
							JOINT Head
							{
								OFFSET 0.000000 5.101515 0.000000
								CHANNELS 3 Zrotation Yrotation Xrotation
								JOINT HeadEnd
								{
									OFFSET 0.000000 11.655085 0.000000
									CHANNELS 3 Zrotation Yrotation Xrotation
									End Site
									{
										OFFSET 0.000000 0.000000 0.000000
									}
								}
							}
						}
					}
					JOINT RightShoulder
					{
						OFFSET -2.625389 11.175210 0.000000
						CHANNELS 3 Zrotation Yrotation Xrotation
						JOINT RightArm
						{
							OFFSET -0.000000 10.434715 -0.000000
							CHANNELS 3 Zrotation Yrotation Xrotation
							JOINT RightForeArm
							{
								OFFSET -0.000000 29.628420 0.000000
								CHANNELS 3 Zrotation Yrotation Xrotation
								JOINT RightHand
								{
									OFFSET -0.000000 22.857611 0.000000
									CHANNELS 3 Zrotation Yrotation Xrotation
									JOINT RightHandThumb1
									{
										OFFSET -2.867323 3.959563 2.944291
										CHANNELS 3 Zrotation Yrotation Xrotation
										JOINT RightHandThumb2
										{
											OFFSET 0.000000 3.350399 0.000000
											CHANNELS 3 Zrotation Yrotation Xrotation
											JOINT RightHandThumb3
											{
												OFFSET 0.000000 3.756509 -0.000000
												CHANNELS 3 Zrotation Yrotation Xrotation
												JOINT RightHandThumb4
												{
													OFFSET 0.000000 3.147345 0.000000
													CHANNELS 3 Zrotation Yrotation Xrotation
													End Site
													{
														OFFSET 0.000000 0.000000 0.000000
													}
												}
											}
										}
									}
									JOINT RightHandIndex1
									{
										OFFSET -0.086752 10.030893 2.345280
										CHANNELS 3 Zrotation Yrotation Xrotation
										JOINT RightHandIndex2
										{
											OFFSET -0.000000 4.061090 0.000000
											CHANNELS 3 Zrotation Yrotation Xrotation
											JOINT RightHandIndex3
											{
												OFFSET -0.000000 3.248873 0.000000
												CHANNELS 3 Zrotation Yrotation Xrotation
												JOINT RightHandIndex4
												{
													OFFSET 0.000000 2.639709 -0.000000
													CHANNELS 3 Zrotation Yrotation Xrotation
													End Site
													{
														OFFSET 0.000000 0.000000 0.000000
													}
												}
											}
										}
									}
									JOINT RightHandMiddle1
									{
										OFFSET 0.104102 9.502952 0.006768
										CHANNELS 3 Zrotation Yrotation Xrotation
										JOINT RightHandMiddle2
										{
											OFFSET 0.000000 4.568727 0.000000
											CHANNELS 3 Zrotation Yrotation Xrotation
											JOINT RightHandMiddle3
											{
												OFFSET 0.000000 3.654981 -0.000000
												CHANNELS 3 Zrotation Yrotation Xrotation
												JOINT RightHandMiddle4
												{
													OFFSET -0.000000 2.741236 -0.000000
													CHANNELS 3 Zrotation Yrotation Xrotation
													End Site
													{
														OFFSET 0.000000 0.000000 0.000000
													}
												}
											}
										}
									}
									JOINT RightHandRing1
									{
										OFFSET 0.086752 8.921708 -2.267442
										CHANNELS 3 Zrotation Yrotation Xrotation
										JOINT RightHandRing2
										{
											OFFSET -0.000000 4.061090 0.000000
											CHANNELS 3 Zrotation Yrotation Xrotation
											JOINT RightHandRing3
											{
												OFFSET 0.000000 3.654981 -0.000000
												CHANNELS 3 Zrotation Yrotation Xrotation
												JOINT RightHandRing4
												{
													OFFSET 0.000000 2.741236 -0.000000
													CHANNELS 3 Zrotation Yrotation Xrotation
													End Site
													{
														OFFSET 0.000000 0.000000 0.000000
													}
												}
											}
										}
									}
									JOINT RightHandPinky1
									{
										OFFSET -0.173504 7.976997 -4.467199
										CHANNELS 3 Zrotation Yrotation Xrotation
										JOINT RightHandPinky2
										{
											OFFSET 0.000000 3.350399 -0.000000
											CHANNELS 3 Zrotation Yrotation Xrotation
											JOINT RightHandPinky3
											{
												OFFSET -0.000000 2.842763 0.000000
												CHANNELS 3 Zrotation Yrotation Xrotation
												JOINT RightHandPinky4
												{
													OFFSET -0.000000 2.639709 0.000000
													CHANNELS 3 Zrotation Yrotation Xrotation
													End Site
													{
														OFFSET 0.000000 0.000000 0.000000
													}
												}
											}
										}
									}
									JOINT RightForeArmEnd
									{
										OFFSET 0.000000 0.000000 0.000000
										CHANNELS 3 Zrotation Yrotation Xrotation
										End Site
										{
											OFFSET 0.000000 0.000000 0.000000
										}
									}
								}
								JOINT RightArmEnd
								{
									OFFSET 0.000000 0.000000 0.000000
									CHANNELS 3 Zrotation Yrotation Xrotation
									End Site
									{
										OFFSET 0.000000 0.000000 0.000000
									}
								}
							}
						}
					}
					JOINT LeftShoulder
					{
						OFFSET 2.625389 11.175210 0.000000
						CHANNELS 3 Zrotation Yrotation Xrotation
						JOINT LeftArm
						{
							OFFSET 0.000000 10.813635 -0.000000
							CHANNELS 3 Zrotation Yrotation Xrotation
							JOINT LeftForeArm
							{
								OFFSET 0.000000 28.724781 0.000000
								CHANNELS 3 Zrotation Yrotation Xrotation
								JOINT LeftHand
								{
									OFFSET 0.644384 25.716167 -0.328871
									CHANNELS 3 Zrotation Yrotation Xrotation
									JOINT LeftHandThumb1
									{
										OFFSET 2.867323 3.959563 2.944291
										CHANNELS 3 Zrotation Yrotation Xrotation
										JOINT LeftHandThumb2
										{
											OFFSET 0.000000 3.350399 0.000000
											CHANNELS 3 Zrotation Yrotation Xrotation
											JOINT LeftHandThumb3
											{
												OFFSET -0.000000 3.756509 0.000000
												CHANNELS 3 Zrotation Yrotation Xrotation
												JOINT LeftHandThumb4
												{
													OFFSET -0.000000 3.100000 0.000000
													CHANNELS 3 Zrotation Yrotation Xrotation
													End Site
													{
														OFFSET 0.000000 0.000000 0.000000
													}
												}
											}
										}
									}
									JOINT LeftHandIndex1
									{
										OFFSET 0.086752 10.030893 2.345280
										CHANNELS 3 Zrotation Yrotation Xrotation
										JOINT LeftHandIndex2
										{
											OFFSET -0.000000 4.061090 -0.000000
											CHANNELS 3 Zrotation Yrotation Xrotation
											JOINT LeftHandIndex3
											{
												OFFSET 0.000000 3.248873 -0.000000
												CHANNELS 3 Zrotation Yrotation Xrotation
												JOINT LeftHandIndex4
												{
													OFFSET 0.000000 2.639709 -0.000000
													CHANNELS 3 Zrotation Yrotation Xrotation
													End Site
													{
														OFFSET 0.000000 0.000000 0.000000
													}
												}
											}
										}
									}
									JOINT LeftHandMiddle1
									{
										OFFSET -0.104102 9.502952 0.006768
										CHANNELS 3 Zrotation Yrotation Xrotation
										JOINT LeftHandMiddle2
										{
											OFFSET -0.000000 4.568727 -0.000000
											CHANNELS 3 Zrotation Yrotation Xrotation
											JOINT LeftHandMiddle3
											{
												OFFSET 0.000000 3.654981 0.000000
												CHANNELS 3 Zrotation Yrotation Xrotation
												JOINT LeftHandMiddle4
												{
													OFFSET 0.000000 2.741236 -0.000000
													CHANNELS 3 Zrotation Yrotation Xrotation
													End Site
													{
														OFFSET 0.000000 0.000000 0.000000
													}
												}
											}
										}
									}
									JOINT LeftHandRing1
									{
										OFFSET -0.086752 8.921708 -2.267442
										CHANNELS 3 Zrotation Yrotation Xrotation
										JOINT LeftHandRing2
										{
											OFFSET 0.000000 4.061090 0.000000
											CHANNELS 3 Zrotation Yrotation Xrotation
											JOINT LeftHandRing3
											{
												OFFSET 0.000000 3.654981 0.000000
												CHANNELS 3 Zrotation Yrotation Xrotation
												JOINT LeftHandRing4
												{
													OFFSET 0.000000 2.741236 0.000000
													CHANNELS 3 Zrotation Yrotation Xrotation
													End Site
													{
														OFFSET 0.000000 0.000000 0.000000
													}
												}
											}
										}
									}
									JOINT LeftHandPinky1
									{
										OFFSET 0.173504 7.976997 -4.467199
										CHANNELS 3 Zrotation Yrotation Xrotation
										JOINT LeftHandPinky2
										{
											OFFSET -0.000000 3.350399 -0.000000
											CHANNELS 3 Zrotation Yrotation Xrotation
											JOINT LeftHandPinky3
											{
												OFFSET 0.000000 2.842763 0.000000
												CHANNELS 3 Zrotation Yrotation Xrotation
												JOINT LeftHandPinky4
												{
													OFFSET -0.000000 2.639709 -0.000000
													CHANNELS 3 Zrotation Yrotation Xrotation
													End Site
													{
														OFFSET 0.000000 0.000000 0.000000
													}
												}
											}
										}
									}
									JOINT LeftForeArmEnd
									{
										OFFSET 0.000000 0.000000 0.000000
										CHANNELS 3 Zrotation Yrotation Xrotation
										End Site
										{
											OFFSET 0.000000 0.000000 0.000000
										}
									}
								}
								JOINT LeftArmEnd
								{
									OFFSET 0.000000 0.000000 0.000000
									CHANNELS 3 Zrotation Yrotation Xrotation
									End Site
									{
										OFFSET 0.000000 0.000000 0.000000
									}
								}
							}
						}
					}
				}
			}
		}
	}
	JOINT RightUpLeg
	{
		OFFSET -11.289943 0.000000 0.000000
		CHANNELS 3 Zrotation Yrotation Xrotation
		JOINT RightLeg
		{
			OFFSET 0.000000 -38.200325 0.000000
			CHANNELS 3 Zrotation Yrotation Xrotation
			JOINT RightFoot
			{
				OFFSET -0.000000 -39.900856 -0.000000
				CHANNELS 3 Zrotation Yrotation Xrotation
				JOINT RightToeBase
				{
					OFFSET 0.000000 0.000000 15.261641
					CHANNELS 3 Zrotation Yrotation Xrotation
					JOINT RightToeBaseEnd
					{
						OFFSET 0.000000 0.000000 7.370709
						CHANNELS 3 Zrotation Yrotation Xrotation
						End Site
						{
							OFFSET 0.000000 0.000000 0.000000
						}
					}
				}
				JOINT RightLegEnd
				{
					OFFSET 0.000000 0.000000 0.000000
					CHANNELS 3 Zrotation Yrotation Xrotation
					End Site
					{
						OFFSET 0.000000 0.000000 0.000000
					}
				}
			}
			JOINT RightUpLegEnd
			{
				OFFSET 0.000000 0.000000 0.000000
				CHANNELS 3 Zrotation Yrotation Xrotation
				End Site
				{
					OFFSET 0.000000 0.000000 0.000000
				}
			}
		}
	}
	JOINT LeftUpLeg
	{
		OFFSET 11.315661 -0.000000 0.000000
		CHANNELS 3 Zrotation Yrotation Xrotation
		JOINT LeftLeg
		{
			OFFSET -0.000000 -38.200325 -0.000000
			CHANNELS 3 Zrotation Yrotation Xrotation
			JOINT LeftFoot
			{
				OFFSET 0.000000 -39.900856 -0.000000
				CHANNELS 3 Zrotation Yrotation Xrotation
				JOINT LeftToeBase
				{
					OFFSET -0.000000 -0.000000 15.261641
					CHANNELS 3 Zrotation Yrotation Xrotation
					JOINT LeftToeBaseEnd
					{
						OFFSET 0.000000 -0.000000 7.539996
						CHANNELS 3 Zrotation Yrotation Xrotation
						End Site
						{
							OFFSET 0.000000 0.000000 0.000000
						}
					}
				}
				JOINT LeftLegEnd
				{
					OFFSET 0.000000 0.000000 0.000000
					CHANNELS 3 Zrotation Yrotation Xrotation
					End Site
					{
						OFFSET 0.000000 0.000000 0.000000
					}
				}
			}
			JOINT LeftUpLegEnd
			{
				OFFSET 0.000000 0.000000 0.000000
				CHANNELS 3 Zrotation Yrotation Xrotation
				End Site
				{
					OFFSET 0.000000 0.000000 0.000000
				}
			}
		}
	}
}
MOTION
Frames: 4
Frame Time: 0.016667
0.499917 88.833199 2.760000 -0.185943 -1.499484 -9.587567 1.001767 0.090464 6.290740 -1.080237 0.312602 2.889141 0.405968 -0.774886 3.587244 -1.430488 0.231864 4.889020 1.196244 -0.308432 5.188009 0.026513 -0.064166 -3.154390 -0.136917 -0.798259 -20.741980 0.000000 0.000000 0.000000 90.990547 -0.208000 8.235417 68.589554 -16.641817 -1.853302 -0.788812 17.657112 67.404305 -11.705683 1.082151 1.316344 16.373301 31.310493 65.598137 -4.377413 -5.496634 -9.904095 -3.187032 -3.586297 -6.684745 0.000000 0.000000 0.000000 -15.231871 -6.248146 12.998675 0.639774 0.553914 0.345699 0.263580 0.110690 0.402037 0.000000 0.000000 0.000000 -14.872522 -0.900796 7.507767 -0.447984 0.532424 0.107720 0.169644 0.029541 0.099629 0.000000 0.000000 0.000000 -14.782692 6.994293 0.570211 -0.328143 -1.045665 -0.261141 -0.189904 -0.052771 -0.165172 0.000000 0.000000 0.000000 -15.846615 15.244071 -6.564584 -0.422595 -2.030530 -0.796894 -0.409378 -0.050907 -0.658185 0.000000 0.000000 0.000000 0.000000 0.000000 0.000000 0.000000 0.000000 0.000000 -88.176231 0.259458 3.537468 -72.553261 9.157445 -9.672947 0.077679 -12.864711 78.677361 3.874930 -7.050557 -1.730685 -15.614228 -31.602266 66.386879 3.487071 3.870499 -7.355626 2.446540 2.656874 -5.152570 0.000000 0.000000 0.000000 13.982575 -11.636398 19.223871 -1.128440 0.614413 -0.087761 -1.114311 0.138988 -0.180984 0.000000 0.000000 0.000000 14.041820 -6.081141 12.124010 -1.103859 0.548361 -0.080032 -1.431587 0.046518 -0.066364 0.000000 0.000000 0.000000 11.414529 2.457170 3.291555 -2.209758 -1.066941 0.233857 -2.371870 -0.065030 0.173004 0.000000 0.000000 0.000000 6.366880 12.149268 -5.570377 -3.889633 -2.086212 1.025777 -3.468683 -0.025946 0.917592 0.000000 0.000000 0.000000 0.000000 0.000000 0.000000 0.000000 0.000000 0.000000 -0.613417 -8.452290 13.276922 -0.063697 -0.629405 5.370883 -2.689378 -7.165133 17.866331 -0.796834 0.815947 -18.849878 0.000000 0.000000 0.000000 0.000000 0.000000 0.000000 0.000000 0.000000 0.000000 -1.598850 -6.088295 8.513931 0.076533 0.343481 10.264543 3.772688 -0.792468 16.725391 0.282851 -0.429861 -20.989134 0.000000 0.000000 0.000000 0.000000 0.000000 0.000000 0.000000 0.000000 0.000000 
0.502550 88.823723 2.731872 -0.178371 -1.510765 -9.603020 1.002516 0.094092 6.299100 -1.100617 0.328450 2.939621 0.404487 -0.765776 3.544305 -1.455401 0.239493 4.975577 1.268935 -0.398960 5.383246 0.032679 -0.137819 -3.048060 -0.120437 -0.812261 -20.769281 0.000000 0.000000 0.000000 90.898056 -0.195144 8.151032 68.648193 -16.156933 -1.959131 -0.814988 17.707966 69.290222 -12.687638 0.389014 1.857793 16.336056 31.324715 65.642662 -4.328352 -5.415907 -9.781836 -3.152744 -3.538975 -6.594651 0.000000 0.000000 0.000000 -15.611030 -6.163867 13.076909 0.568429 0.563345 0.297336 0.183904 0.120520 0.360710 0.000000 0.000000 0.000000 -15.264603 -0.829580 7.511402 -0.513142 0.537668 0.087647 0.104714 0.033913 0.083651 0.000000 0.000000 0.000000 -15.208696 7.058341 0.459603 -0.400457 -1.051571 -0.237989 -0.265352 -0.057317 -0.145520 0.000000 0.000000 0.000000 -16.322687 15.303484 -6.789668 -0.494007 -2.043159 -0.725218 -0.484532 -0.065857 -0.597576 0.000000 0.000000 0.000000 0.000000 0.000000 0.000000 0.000000 0.000000 0.000000 -88.167816 0.261361 3.451330 -72.425262 8.866728 -9.834580 0.124836 -12.816018 80.478966 5.028910 -5.917332 -0.831369 -15.482727 -31.653547 66.536102 3.315526 3.605068 -6.923205 2.315349 2.479100 -4.847839 0.000000 0.000000 0.000000 15.052927 -11.799831 19.697266 -1.069833 0.623848 -0.044698 -1.057397 0.148737 -0.140475 0.000000 0.000000 0.000000 15.088937 -6.250529 12.467022 -1.052689 0.552504 -0.062452 -1.395048 0.050689 -0.052182 0.000000 0.000000 0.000000 12.456736 2.278425 3.411906 -2.169146 -1.072410 0.211911 -2.330596 -0.070041 0.156606 0.000000 0.000000 0.000000 7.290955 12.014099 -5.661132 -3.864778 -2.095919 0.964407 -3.442255 -0.037599 0.864308 0.000000 0.000000 0.000000 0.000000 0.000000 0.000000 0.000000 0.000000 0.000000 -0.602404 -8.440927 13.272551 -0.063622 -0.631432 5.378960 -2.741573 -7.158713 17.845734 -0.796318 0.816427 -18.854210 0.000000 0.000000 0.000000 0.000000 0.000000 0.000000 0.000000 0.000000 0.000000 -1.591245 -6.087449 8.529574 0.076222 0.340480 10.289800 3.765281 -0.773233 16.703918 0.273705 -0.427880 -20.990957 0.000000 0.000000 0.000000 0.000000 0.000000 0.000000 0.000000 0.000000 0.000000 
0.504730 88.816032 2.707552 -0.170707 -1.526919 -9.617682 1.007268 0.097457 6.313190 -1.121315 0.343257 2.986238 0.403550 -0.746901 3.515054 -1.482446 0.251752 5.053827 1.349704 -0.486568 5.553803 0.039525 -0.209250 -2.955616 -0.102305 -0.823955 -20.789169 0.000000 0.000000 0.000000 90.817055 -0.186402 8.084597 68.683525 -15.712668 -2.036740 -0.835540 17.789034 70.996689 -13.563148 -0.135789 2.411962 16.323208 31.329103 65.659492 -4.314190 -5.383604 -9.739906 -3.144003 -3.523468 -6.562051 0.000000 0.000000 0.000000 -15.771527 -6.118535 13.108834 0.496796 0.571953 0.255033 0.103287 0.129710 0.324881 0.000000 0.000000 0.000000 -15.432456 -0.796417 7.492901 -0.580664 0.542503 0.070075 0.038725 0.037987 0.069876 0.000000 0.000000 0.000000 -15.383144 7.082856 0.361743 -0.470474 -1.056764 -0.218060 -0.338106 -0.061385 -0.128352 0.000000 0.000000 0.000000 -16.530621 15.329833 -6.973789 -0.552582 -2.054638 -0.659965 -0.547565 -0.079740 -0.542020 0.000000 0.000000 0.000000 0.000000 0.000000 0.000000 0.000000 0.000000 0.000000 -88.168510 0.263727 3.368664 -72.309669 8.558259 -10.003360 0.159472 -12.786876 82.211296 6.167058 -4.926678 0.158265 -15.384490 -31.691833 66.648193 3.189385 3.404840 -6.600238 2.217916 2.345950 -4.619781 0.000000 0.000000 0.000000 15.847995 -11.914838 20.074890 -1.007515 0.631929 -0.006387 -0.998027 0.157200 -0.104060 0.000000 0.000000 0.000000 15.861349 -6.372932 12.744012 -1.000800 0.556093 -0.046950 -1.354835 0.054351 -0.039663 0.000000 0.000000 0.000000 13.212601 2.147351 3.509910 -2.136164 -1.077260 0.192936 -2.296923 -0.074439 0.142550 0.000000 0.000000 0.000000 7.942941 11.919915 -5.735981 -3.855469 -2.104662 0.912534 -3.433190 -0.048311 0.819649 0.000000 0.000000 0.000000 0.000000 0.000000 0.000000 0.000000 0.000000 0.000000 -0.595627 -8.434808 13.266854 -0.063339 -0.633294 5.383989 -2.789311 -7.159574 17.832197 -0.796288 0.816204 -18.859566 0.000000 0.000000 0.000000 0.000000 0.000000 0.000000 0.000000 0.000000 0.000000 -1.584379 -6.081489 8.544343 0.075780 0.337013 10.311002 3.760822 -0.750985 16.686155 0.264835 -0.425606 -20.993486 0.000000 0.000000 0.000000 0.000000 0.000000 0.000000 0.000000 0.000000 0.000000 
0.506947 88.810150 2.687131 -0.161422 -1.545538 -9.633799 1.014879 0.100864 6.331468 -1.142277 0.357437 3.029532 0.402482 -0.719647 3.502346 -1.511816 0.267940 5.124386 1.431668 -0.568276 5.704029 0.047556 -0.275474 -2.876160 -0.083509 -0.834463 -20.807503 0.000000 0.000000 0.000000 90.751732 -0.182517 8.033644 68.696541 -15.300786 -2.090730 -0.850609 17.891613 72.534683 -14.344383 -0.484729 2.987071 16.330391 31.325294 65.653114 -4.329624 -5.392023 -9.765479 -3.156804 -3.534068 -6.577258 0.000000 0.000000 0.000000 -15.742733 -6.107761 13.112507 0.430878 0.579676 0.219263 0.027766 0.138136 0.295079 0.000000 0.000000 0.000000 -15.405130 -0.796502 7.466177 -0.644328 0.546834 0.055105 -0.021806 0.041660 0.058411 0.000000 0.000000 0.000000 -15.337309 7.073484 0.287483 -0.532825 -1.061234 -0.201528 -0.403205 -0.064913 -0.113901 0.000000 0.000000 0.000000 -16.502409 15.327991 -7.108023 -0.594608 -2.065135 -0.602183 -0.594656 -0.092485 -0.492254 0.000000 0.000000 0.000000 0.000000 0.000000 0.000000 0.000000 0.000000 0.000000 -88.182404 0.269272 3.285136 -72.204247 8.226921 -10.164770 0.183292 -12.767651 83.870033 7.288640 -4.103668 1.247084 -15.316702 -31.717857 66.725746 3.106350 3.265310 -6.378973 2.152259 2.253896 -4.463204 0.000000 0.000000 0.000000 16.378075 -11.985382 20.378460 -0.942077 0.638658 0.026346 -0.936885 0.164390 -0.072631 0.000000 0.000000 0.000000 16.366528 -6.450831 12.972055 -0.947735 0.559119 -0.033821 -1.311860 0.057487 -0.029077 0.000000 0.000000 0.000000 13.690118 2.062900 3.599209 -2.108776 -1.081454 0.177280 -2.268784 -0.078180 0.131076 0.000000 0.000000 0.000000 8.329894 11.866342 -5.785993 -3.859105 -2.112516 0.870833 -3.437666 -0.057954 0.784003 0.000000 0.000000 0.000000 0.000000 0.000000 0.000000 0.000000 0.000000 0.000000 -0.596486 -8.433164 13.264370 -0.062983 -0.634865 5.386558 -2.830634 -7.164675 17.823151 -0.796590 0.815392 -18.864843 0.000000 0.000000 0.000000 0.000000 0.000000 0.000000 0.000000 0.000000 0.000000 -1.581235 -6.072910 8.558473 0.075178 0.333075 10.332557 3.760410 -0.726789 16.670317 0.256000 -0.423097 -20.995615 0.000000 0.000000 0.000000 0.000000 0.000000 0.000000 0.000000 0.000000 0.000000 
